<svg
      xmlns="http://www.w3.org/2000/svg"
      viewBox="0 0 640 400"
      style="background-color: #fff"
    >
      <style>
        text {
          font-size: 12px;
          font-family: Open Sans, Helvetica Neue, Helvetica, Arial, sans-serif;
        }
        #labels text {
          dominant-baseline: hanging;
          font-size: 10px;
          fill: rgba(0,0,0,0.5);
        }
        #legend {
          font-weight: 600;
        }
        #legend tspan {
          font-size: 15px;
        }
        #branding-text {
          font-size: 9px;
          dominant-baseline: hanging;
          opacity: 0.5;
        }
        #branding-logo {
          opacity: 0.5;
        }
      </style>

      
      <text id="branding-text" x="0" y="6">Powered by</text>
      <svg id="branding-logo" xmlns="http://www.w3.org/2000/svg" width="90" height="39" viewBox="0 0 258 39" x="52" y="-10">
        <path fill="#19223C" d="M71.358 27.687A8.076 8.076 0 0 1 69 21.999c0-2.122.846-4.162 2.358-5.687a8.022 8.022 0 0 1 2.664-1.688 8.175 8.175 0 0 1 3.126-.543 8.298 8.298 0 0 1 4.723 1.339 7.155 7.155 0 0 1 2.895 3.791H80.12a3 3 0 0 0-1.182-1.283 3.106 3.106 0 0 0-1.713-.427 4.128 4.128 0 0 0-1.694.264 4.046 4.046 0 0 0-1.43.926 5.197 5.197 0 0 0-1.133 3.234c0 1.17.399 2.309 1.134 3.234.403.405.89.72 1.43.926a4.128 4.128 0 0 0 1.693.264c.586.039 1.17-.087 1.684-.364a3.01 3.01 0 0 0 1.211-1.198h4.571a7.156 7.156 0 0 1-2.895 3.792 8.298 8.298 0 0 1-4.723 1.338 8.173 8.173 0 0 1-3.085-.557 8.02 8.02 0 0 1-2.629-1.673zM88.652 27.687a8.076 8.076 0 0 1-2.359-5.688c0-2.122.846-4.162 2.359-5.687a8.57 8.57 0 0 1 5.79-2.238c2.15 0 4.221.8 5.79 2.238a8.076 8.076 0 0 1 2.358 5.687 8.076 8.076 0 0 1-2.359 5.688 8.491 8.491 0 0 1-5.79 2.266 8.491 8.491 0 0 1-5.79-2.266zm8.837-2.454A5.197 5.197 0 0 0 98.623 22c0-1.17-.4-2.308-1.134-3.234a4.398 4.398 0 0 0-3.048-1.219c-1.14 0-2.234.438-3.047 1.22a5.197 5.197 0 0 0-1.134 3.233c0 1.171.399 2.309 1.134 3.234a4.398 4.398 0 0 0 3.047 1.219c1.14 0 2.235-.438 3.048-1.219zM110.592 14.304a9.126 9.126 0 0 1 6.247 2.156 7.73 7.73 0 0 1 1.8 2.546 7.573 7.573 0 0 1 0 6.06 7.73 7.73 0 0 1-1.8 2.546 9.049 9.049 0 0 1-6.247 2.156h-5.561V14.304h5.561zm-1.752 12.64h1.752a4.596 4.596 0 0 0 1.903-.295 4.504 4.504 0 0 0 1.602-1.044 4.909 4.909 0 0 0 1.295-3.569 4.909 4.909 0 0 0-1.295-3.568 4.504 4.504 0 0 0-1.602-1.044 4.595 4.595 0 0 0-1.903-.294h-1.752v9.813zM131.313 14.23v2.9h-5.714v3.345h5.104v2.9H125.6v3.568h5.714v2.9h-9.599V14.23zM138.55 23.746v6.022h-3.885V14.304h6.247a6.19 6.19 0 0 1 4.266 1.413c.486.418.874.933 1.137 1.51.263.578.395 1.204.387 1.836a4.752 4.752 0 0 1-.838 2.602 4.578 4.578 0 0 1-2.743 1.784l3.885 6.32h-4.418l-3.58-6.023h-.458zm0-6.616v3.717h2.362c.253.01.505-.03.742-.12.236-.09.45-.226.63-.4.175-.178.312-.388.404-.617.091-.23.135-.475.128-.722a1.819 1.819 0 0 0-.128-.721 1.854 1.854 0 0 0-.405-.617 1.833 1.833 0 0 0-.63-.4 1.87 1.87 0 0 0-.741-.12h-2.362zM155.158 17.055a1.86 1.86 0 0 0-1.22.372c-.159.138-.284.311-.363.505-.08.193-.111.402-.093.61a1.528 1.528 0 0 0 .457 1.115c.32.31.712.539 1.143.67l1.523.445 1.676.52 1.524.744c.487.317.881.753 1.143 1.264.31.6.466 1.262.457 1.933a4.227 4.227 0 0 1-.45 1.859 4.333 4.333 0 0 1-1.226 1.487 6.424 6.424 0 0 1-4.343 1.412 6.899 6.899 0 0 1-4.342-1.263 4.331 4.331 0 0 1-1.278-1.588 4.223 4.223 0 0 1-.398-1.981h4.114c-.012.253.032.507.128.742.097.236.244.449.431.625a1.87 1.87 0 0 0 1.421.492c.475.02.94-.14 1.296-.447a1.382 1.382 0 0 0 .457-1.115 1.455 1.455 0 0 0-.457-1.115 2.986 2.986 0 0 0-1.143-.669l-1.524-.446-1.676-.52-1.523-.744a3.148 3.148 0 0 1-1.143-1.264 4 4 0 0 1-.305-1.859 4.15 4.15 0 0 1 .407-1.944 4.258 4.258 0 0 1 1.27-1.55 6.582 6.582 0 0 1 4.19-1.338 6.982 6.982 0 0 1 4.113 1.115 4.33 4.33 0 0 1 1.278 1.588c.292.62.428 1.299.398 1.98h-4.19a2.056 2.056 0 0 0-.533-1.263 1.611 1.611 0 0 0-1.22-.372zM168.261 23.746v6.022h-3.885V14.304h6.247a6.19 6.19 0 0 1 4.266 1.413c.486.418.874.933 1.137 1.51.263.578.395 1.204.387 1.836a4.752 4.752 0 0 1-.838 2.602 4.578 4.578 0 0 1-2.743 1.784l3.885 6.32H172.3l-3.58-6.023h-.458zm0-6.616v3.717h2.362c.253.01.505-.03.742-.12.236-.09.45-.226.63-.4.175-.178.312-.388.404-.617.091-.23.135-.475.128-.722a1.819 1.819 0 0 0-.128-.721 1.854 1.854 0 0 0-.405-.617 1.833 1.833 0 0 0-.63-.4 1.87 1.87 0 0 0-.741-.12h-2.362zM189.592 29.768l-.914-2.602h-5.714l-.914 2.602h-4.114l5.485-15.538h4.723l5.485 15.538h-4.037zm-5.638-5.501h3.733l-1.828-5.428-1.905 5.428zM205.972 14.23h3.885v15.538h-3.885l-6.476-9.813v9.813h-3.885V14.23h3.885l6.476 9.814zM217.093 29.768h-3.885V14.304h3.885v6.766l5.257-6.766h5.104l-6.552 7.732 6.552 7.732h-4.952l-5.333-6.84zM232.863 27.761a1.98 1.98 0 0 1-.5 1.253 2.07 2.07 0 0 1-1.197.664 2.1 2.1 0 0 1-1.359-.222 2.024 2.024 0 0 1-.91-1.01 1.962 1.962 0 0 1-.054-1.342c.141-.44.433-.82.827-1.076a2.096 2.096 0 0 1 2.583.246c.201.194.359.426.464.682.105.256.154.53.146.805z"></path> <path fill="#67a4ac" d="M235.301 29.768V14.304h3.885v15.464zM244.062 27.687a8.076 8.076 0 0 1-2.358-5.688c0-2.122.846-4.162 2.358-5.687a8.57 8.57 0 0 1 5.79-2.238c2.151 0 4.222.8 5.79 2.238A8.076 8.076 0 0 1 258 21.999a8.076 8.076 0 0 1-2.358 5.688 8.491 8.491 0 0 1-5.79 2.266 8.491 8.491 0 0 1-5.79-2.266zm8.837-2.454A5.197 5.197 0 0 0 254.033 22c0-1.17-.399-2.308-1.134-3.234a4.398 4.398 0 0 0-3.047-1.219c-1.14 0-2.235.438-3.047 1.22a5.197 5.197 0 0 0-1.134 3.233c0 1.171.399 2.309 1.134 3.234a4.398 4.398 0 0 0 3.047 1.219c1.14 0 2.235-.438 3.047-1.219z"></path> <path d="M33.25.054L2.147 19.634C.682 20.52-.034 21.512.001 22.611v2.98c.035 1.1.768 2.075 2.2 2.926l15.393 8.885a.726.726 0 0 0 1.047-.373l3.456-8.352-7.33-4.15a1.317 1.317 0 0 1-.514-.477 1.346 1.346 0 0 1 .461-1.864l13.457-8.247L33.72.427a.324.324 0 0 0-.103-.36.31.31 0 0 0-.369-.013z" fill="#19223c"></path> <path d="M58.8 10.961L43.618 1.757a.726.726 0 0 0-1.047.32l-3.56 8.352 7.225 4.31c.208.113.381.282.502.488a1.347 1.347 0 0 1 0 1.363 1.318 1.318 0 0 1-.502.49l-13.561 7.98-5.76 13.407a.323.323 0 0 0 .026.452.312.312 0 0 0 .445-.026l9.949-6.012 3.927 5.64a.947.947 0 0 0 .785.425h9.425a.932.932 0 0 0 .832-.506.97.97 0 0 0-.047-.984l-6.388-9.79 12.933-7.82c1.466-.887 2.199-1.88 2.199-2.98V13.94c0-1.1-.733-2.092-2.2-2.979z" fill="#67a4ac"></path>
      </svg>
      
      
      <polygon
        fill="#3572A5"
        fillRule="evenodd"
        points="0 319.36039168671454 26.666666666666664 305.2022161135254 53.33333333333333 299.80478191021626 80 298.3431642682016 106.66666666666666 298.9832206937727 133.33333333333334 298.5498550433683 160 299.2046082913388 186.66666666666669 299.12915301391143 213.33333333333331 299.4098372119983 240 300.01836515656424 266.6666666666667 299.3161900803249 293.3333333333333 299.9475495898258 320 300.52071753069004 346.66666666666663 301.1153131275363 373.33333333333337 295.38249585119627 400 251.58562962695603 426.66666666666663 227.98959418020442 453.33333333333337 185.0999544971449 480 166.77201745012738 506.66666666666663 156.9029707806564 533.3333333333334 107.2511594764737 560 74.55279515300765 586.6666666666666 39.33437320703018 613.3333333333334 2.2604321685111586 640 0 640 320 0 320"
      />
      
      <polygon
        fill="#F18E33"
        fillRule="evenodd"
        points="0 320 26.666666666666664 320 53.33333333333333 320 80 320 106.66666666666666 320 133.33333333333334 320 160 320 186.66666666666669 320 213.33333333333331 320 240 320 266.6666666666667 320 293.3333333333333 320 320 320 346.66666666666663 320 373.33333333333337 314.4579181396541 400 271.5375902471203 426.66666666666663 247.35188254245026 453.33333333333337 203.8712276878395 480 184.97030365274105 506.66666666666663 174.5634144820928 533.3333333333334 124.37253162103102 560 91.16815317105056 586.6666666666666 55.4425571708864 613.3333333333334 17.876922690444474 640 15.593003257306123 640 320 0 320"
      />
      
      <polygon
        fill="#b07219"
        fillRule="evenodd"
        points="0 320 26.666666666666664 320 53.33333333333333 320 80 320 106.66666666666666 320 133.33333333333334 320 160 320 186.66666666666669 320 213.33333333333331 320 240 320 266.6666666666667 320 293.3333333333333 320 320 320 346.66666666666663 320 373.33333333333337 314.4579181396541 400 271.5375902471203 426.66666666666663 247.35188254245026 453.33333333333337 204.61547204968355 480 185.69183036857635 506.66666666666663 184.0352811781787 533.3333333333334 170.1337318001555 560 160.28762304096034 586.6666666666666 162.43851466750587 613.3333333333334 154.6378339973527 640 154.32770279372787 640 320 0 320"
      />
      
      <polygon
        fill="#22e4e8"
        fillRule="evenodd"
        points="0 320 26.666666666666664 320 53.33333333333333 320 80 320 106.66666666666666 320 133.33333333333334 320 160 320 186.66666666666669 320 213.33333333333331 320 240 320 266.6666666666667 320 293.3333333333333 320 320 320 346.66666666666663 320 373.33333333333337 320 400 313.0259787872657 426.66666666666663 309.5412877820958 453.33333333333337 300.38859967464884 480 295.8983426215598 506.66666666666663 296.61065343247725 533.3333333333334 290.31901235764803 560 291.1962163617813 586.6666666666666 292.0754368894986 613.3333333333334 282.0402333278013 640 281.9296279823984 640 320 0 320"
      />
      
      <polygon
        fill="#e34c26"
        fillRule="evenodd"
        points="0 320 26.666666666666664 320 53.33333333333333 320 80 320 106.66666666666666 320 133.33333333333334 320 160 320 186.66666666666669 320 213.33333333333331 320 240 320 266.6666666666667 320 293.3333333333333 320 320 320 346.66666666666663 320 373.33333333333337 320 400 313.0259787872657 426.66666666666663 309.5412877820958 453.33333333333337 300.38859967464884 480 295.8983426215598 506.66666666666663 296.61065343247725 533.3333333333334 292.9649945320099 560 293.763997961013 586.6666666666666 294.5648384856999 613.3333333333334 295.3412317038181 640 295.2106239597482 640 320 0 320"
      />
      
      <polygon
        fill="#563d7c"
        fillRule="evenodd"
        points="0 320 26.666666666666664 320 53.33333333333333 320 80 320 106.66666666666666 320 133.33333333333334 320 160 320 186.66666666666669 320 213.33333333333331 320 240 320 266.6666666666667 320 293.3333333333333 320 320 320 346.66666666666663 320 373.33333333333337 320 400 313.0259787872657 426.66666666666663 309.5412877820958 453.33333333333337 300.44318027966693 480 295.95125718515345 506.66666666666663 296.66200413705656 533.3333333333334 293.014777783934 560 293.8123098939894 586.6666666666666 294.6116757266874 613.3333333333334 295.3866392632966 640 295.2559632349658 640 320 0 320"
      />
      
      <polygon
        fill="#555555"
        fillRule="evenodd"
        points="0 320 26.666666666666664 320 53.33333333333333 320 80 320 106.66666666666666 320 133.33333333333334 320 160 320 186.66666666666669 320 213.33333333333331 320 240 320 266.6666666666667 320 293.3333333333333 320 320 320 346.66666666666663 320 373.33333333333337 320 400 317.2626503940567 426.66666666666663 314.68205998090326 453.33333333333337 305.7544219960183 480 301.1003763902109 506.66666666666663 301.6589440845994 533.3333333333334 297.8591887674598 560 298.5135465624377 586.6666666666666 299.1694099252355 613.3333333333334 299.8052515741817 640 299.6679306140107 640 320 0 320"
      />
      
      <polygon
        fill="#C1F12E"
        fillRule="evenodd"
        points="0 320 26.666666666666664 320 53.33333333333333 320 80 320 106.66666666666666 320 133.33333333333334 320 160 320 186.66666666666669 320 213.33333333333331 320 240 320 266.6666666666667 320 293.3333333333333 320 320 320 346.66666666666663 320 373.33333333333337 320 400 317.2626503940567 426.66666666666663 314.68205998090326 453.33333333333337 305.7544219960183 480 301.1003763902109 506.66666666666663 301.6589440845994 533.3333333333334 297.8591887674598 560 298.5135465624377 586.6666666666666 299.1694099252355 613.3333333333334 299.8052515741817 640 299.835619110926 640 320 0 320"
      />
      

      
        <g id="labels">
        
          
          <text x="0" y="330">
            Feb 2019
          </text>
          
        
          
        
          
        
          
        
          
          <text x="102.4" y="330">
            Jun 2019
          </text>
          
        
          
        
          
        
          
        
          
          <text x="204.8" y="330">
            Oct 2019
          </text>
          
        
          
        
          
        
          
        
          
          <text x="307.2" y="330">
            Feb 2020
          </text>
          
        
          
        
          
        
          
        
          
          <text x="409.6" y="330">
            Jun 2020
          </text>
          
        
          
        
          
        
          
        
          
          <text x="512" y="330">
            Oct 2020
          </text>
          
        
          
        
          
        
          
        
          
          <text x="614.4" y="330">
            Feb 2021
          </text>
          
        
        </g>
      

      
        <text text-anchor="middle" y="370" x="320" id="legend">
          
          <tspan xml:space="preserve" fill="#C1F12E">   ◉</tspan> Batchfile
          
          <tspan xml:space="preserve" fill="#555555">   ◉</tspan> C
          
          <tspan xml:space="preserve" fill="#563d7c">   ◉</tspan> CSS
          
          <tspan xml:space="preserve" fill="#e34c26">   ◉</tspan> HTML
          
          <tspan xml:space="preserve" fill="#22e4e8">   ◉</tspan> JSON
          
          <tspan xml:space="preserve" fill="#b07219">   ◉</tspan> Java
          
          <tspan xml:space="preserve" fill="#F18E33">   ◉</tspan> Kotlin
          
          <tspan xml:space="preserve" fill="#3572A5">   ◉</tspan> Python
          
        </text>
      

    </svg>