<svg
      xmlns="http://www.w3.org/2000/svg"
      viewBox="0 0 640 400"
      style="background-color: #fff"
    >
      <style>
        text {
          font-size: 12px;
          font-family: Open Sans, Helvetica Neue, Helvetica, Arial, sans-serif;
        }
        #labels text {
          dominant-baseline: hanging;
          font-size: 10px;
          fill: rgba(0,0,0,0.5);
        }
        #legend {
          font-weight: 600;
        }
        #legend tspan {
          font-size: 15px;
        }
        #branding-text {
          font-size: 9px;
          dominant-baseline: hanging;
          opacity: 0.5;
        }
        #branding-logo {
          opacity: 0.5;
        }
      </style>

      
      <text id="branding-text" x="0" y="6">Powered by</text>
      <svg id="branding-logo" xmlns="http://www.w3.org/2000/svg" width="90" height="39" viewBox="0 0 258 39" x="52" y="-10">
        <path fill="#19223C" d="M71.358 27.687A8.076 8.076 0 0 1 69 21.999c0-2.122.846-4.162 2.358-5.687a8.022 8.022 0 0 1 2.664-1.688 8.175 8.175 0 0 1 3.126-.543 8.298 8.298 0 0 1 4.723 1.339 7.155 7.155 0 0 1 2.895 3.791H80.12a3 3 0 0 0-1.182-1.283 3.106 3.106 0 0 0-1.713-.427 4.128 4.128 0 0 0-1.694.264 4.046 4.046 0 0 0-1.43.926 5.197 5.197 0 0 0-1.133 3.234c0 1.17.399 2.309 1.134 3.234.403.405.89.72 1.43.926a4.128 4.128 0 0 0 1.693.264c.586.039 1.17-.087 1.684-.364a3.01 3.01 0 0 0 1.211-1.198h4.571a7.156 7.156 0 0 1-2.895 3.792 8.298 8.298 0 0 1-4.723 1.338 8.173 8.173 0 0 1-3.085-.557 8.02 8.02 0 0 1-2.629-1.673zM88.652 27.687a8.076 8.076 0 0 1-2.359-5.688c0-2.122.846-4.162 2.359-5.687a8.57 8.57 0 0 1 5.79-2.238c2.15 0 4.221.8 5.79 2.238a8.076 8.076 0 0 1 2.358 5.687 8.076 8.076 0 0 1-2.359 5.688 8.491 8.491 0 0 1-5.79 2.266 8.491 8.491 0 0 1-5.79-2.266zm8.837-2.454A5.197 5.197 0 0 0 98.623 22c0-1.17-.4-2.308-1.134-3.234a4.398 4.398 0 0 0-3.048-1.219c-1.14 0-2.234.438-3.047 1.22a5.197 5.197 0 0 0-1.134 3.233c0 1.171.399 2.309 1.134 3.234a4.398 4.398 0 0 0 3.047 1.219c1.14 0 2.235-.438 3.048-1.219zM110.592 14.304a9.126 9.126 0 0 1 6.247 2.156 7.73 7.73 0 0 1 1.8 2.546 7.573 7.573 0 0 1 0 6.06 7.73 7.73 0 0 1-1.8 2.546 9.049 9.049 0 0 1-6.247 2.156h-5.561V14.304h5.561zm-1.752 12.64h1.752a4.596 4.596 0 0 0 1.903-.295 4.504 4.504 0 0 0 1.602-1.044 4.909 4.909 0 0 0 1.295-3.569 4.909 4.909 0 0 0-1.295-3.568 4.504 4.504 0 0 0-1.602-1.044 4.595 4.595 0 0 0-1.903-.294h-1.752v9.813zM131.313 14.23v2.9h-5.714v3.345h5.104v2.9H125.6v3.568h5.714v2.9h-9.599V14.23zM138.55 23.746v6.022h-3.885V14.304h6.247a6.19 6.19 0 0 1 4.266 1.413c.486.418.874.933 1.137 1.51.263.578.395 1.204.387 1.836a4.752 4.752 0 0 1-.838 2.602 4.578 4.578 0 0 1-2.743 1.784l3.885 6.32h-4.418l-3.58-6.023h-.458zm0-6.616v3.717h2.362c.253.01.505-.03.742-.12.236-.09.45-.226.63-.4.175-.178.312-.388.404-.617.091-.23.135-.475.128-.722a1.819 1.819 0 0 0-.128-.721 1.854 1.854 0 0 0-.405-.617 1.833 1.833 0 0 0-.63-.4 1.87 1.87 0 0 0-.741-.12h-2.362zM155.158 17.055a1.86 1.86 0 0 0-1.22.372c-.159.138-.284.311-.363.505-.08.193-.111.402-.093.61a1.528 1.528 0 0 0 .457 1.115c.32.31.712.539 1.143.67l1.523.445 1.676.52 1.524.744c.487.317.881.753 1.143 1.264.31.6.466 1.262.457 1.933a4.227 4.227 0 0 1-.45 1.859 4.333 4.333 0 0 1-1.226 1.487 6.424 6.424 0 0 1-4.343 1.412 6.899 6.899 0 0 1-4.342-1.263 4.331 4.331 0 0 1-1.278-1.588 4.223 4.223 0 0 1-.398-1.981h4.114c-.012.253.032.507.128.742.097.236.244.449.431.625a1.87 1.87 0 0 0 1.421.492c.475.02.94-.14 1.296-.447a1.382 1.382 0 0 0 .457-1.115 1.455 1.455 0 0 0-.457-1.115 2.986 2.986 0 0 0-1.143-.669l-1.524-.446-1.676-.52-1.523-.744a3.148 3.148 0 0 1-1.143-1.264 4 4 0 0 1-.305-1.859 4.15 4.15 0 0 1 .407-1.944 4.258 4.258 0 0 1 1.27-1.55 6.582 6.582 0 0 1 4.19-1.338 6.982 6.982 0 0 1 4.113 1.115 4.33 4.33 0 0 1 1.278 1.588c.292.62.428 1.299.398 1.98h-4.19a2.056 2.056 0 0 0-.533-1.263 1.611 1.611 0 0 0-1.22-.372zM168.261 23.746v6.022h-3.885V14.304h6.247a6.19 6.19 0 0 1 4.266 1.413c.486.418.874.933 1.137 1.51.263.578.395 1.204.387 1.836a4.752 4.752 0 0 1-.838 2.602 4.578 4.578 0 0 1-2.743 1.784l3.885 6.32H172.3l-3.58-6.023h-.458zm0-6.616v3.717h2.362c.253.01.505-.03.742-.12.236-.09.45-.226.63-.4.175-.178.312-.388.404-.617.091-.23.135-.475.128-.722a1.819 1.819 0 0 0-.128-.721 1.854 1.854 0 0 0-.405-.617 1.833 1.833 0 0 0-.63-.4 1.87 1.87 0 0 0-.741-.12h-2.362zM189.592 29.768l-.914-2.602h-5.714l-.914 2.602h-4.114l5.485-15.538h4.723l5.485 15.538h-4.037zm-5.638-5.501h3.733l-1.828-5.428-1.905 5.428zM205.972 14.23h3.885v15.538h-3.885l-6.476-9.813v9.813h-3.885V14.23h3.885l6.476 9.814zM217.093 29.768h-3.885V14.304h3.885v6.766l5.257-6.766h5.104l-6.552 7.732 6.552 7.732h-4.952l-5.333-6.84zM232.863 27.761a1.98 1.98 0 0 1-.5 1.253 2.07 2.07 0 0 1-1.197.664 2.1 2.1 0 0 1-1.359-.222 2.024 2.024 0 0 1-.91-1.01 1.962 1.962 0 0 1-.054-1.342c.141-.44.433-.82.827-1.076a2.096 2.096 0 0 1 2.583.246c.201.194.359.426.464.682.105.256.154.53.146.805z"></path> <path fill="#67a4ac" d="M235.301 29.768V14.304h3.885v15.464zM244.062 27.687a8.076 8.076 0 0 1-2.358-5.688c0-2.122.846-4.162 2.358-5.687a8.57 8.57 0 0 1 5.79-2.238c2.151 0 4.222.8 5.79 2.238A8.076 8.076 0 0 1 258 21.999a8.076 8.076 0 0 1-2.358 5.688 8.491 8.491 0 0 1-5.79 2.266 8.491 8.491 0 0 1-5.79-2.266zm8.837-2.454A5.197 5.197 0 0 0 254.033 22c0-1.17-.399-2.308-1.134-3.234a4.398 4.398 0 0 0-3.047-1.219c-1.14 0-2.235.438-3.047 1.22a5.197 5.197 0 0 0-1.134 3.233c0 1.171.399 2.309 1.134 3.234a4.398 4.398 0 0 0 3.047 1.219c1.14 0 2.235-.438 3.047-1.219z"></path> <path d="M33.25.054L2.147 19.634C.682 20.52-.034 21.512.001 22.611v2.98c.035 1.1.768 2.075 2.2 2.926l15.393 8.885a.726.726 0 0 0 1.047-.373l3.456-8.352-7.33-4.15a1.317 1.317 0 0 1-.514-.477 1.346 1.346 0 0 1 .461-1.864l13.457-8.247L33.72.427a.324.324 0 0 0-.103-.36.31.31 0 0 0-.369-.013z" fill="#19223c"></path> <path d="M58.8 10.961L43.618 1.757a.726.726 0 0 0-1.047.32l-3.56 8.352 7.225 4.31c.208.113.381.282.502.488a1.347 1.347 0 0 1 0 1.363 1.318 1.318 0 0 1-.502.49l-13.561 7.98-5.76 13.407a.323.323 0 0 0 .026.452.312.312 0 0 0 .445-.026l9.949-6.012 3.927 5.64a.947.947 0 0 0 .785.425h9.425a.932.932 0 0 0 .832-.506.97.97 0 0 0-.047-.984l-6.388-9.79 12.933-7.82c1.466-.887 2.199-1.88 2.199-2.98V13.94c0-1.1-.733-2.092-2.2-2.979z" fill="#67a4ac"></path>
      </svg>
      
      
      <polygon
        fill="#F18E33"
        fillRule="evenodd"
        points="0 312.2231730667848 53.33333333333333 290.9281401094918 106.66666666666666 283.20535201377504 160 284.32848531886356 213.33333333333331 273.2872986965342 266.6666666666667 228.81824930729155 320 198.76081395684375 373.33333333333337 169.18121224269993 426.66666666666663 119.5731644028134 480 93.82222183242519 533.3333333333334 56.82824544142085 586.6666666666666 0 640 0.5252164103437167 640 320 0 320"
      />
      
      <polygon
        fill="#b07219"
        fillRule="evenodd"
        points="0 312.2231730667848 53.33333333333333 290.9281401094918 106.66666666666666 283.20535201377504 160 284.32848531886356 213.33333333333331 280.6563870610113 266.6666666666667 266.6920045195052 320 256.2747604191886 373.33333333333337 255.93131322851167 426.66666666666663 235.9870066567156 480 231.65988813709575 533.3333333333334 229.5980659007165 586.6666666666666 204.7776387808422 640 204.9768434108035 640 320 0 320"
      />
      
      <polygon
        fill="#22e4e8"
        fillRule="evenodd"
        points="0 317.7003486170352 53.33333333333333 314.6676632517049 106.66666666666666 314.5095372812276 160 314.67713059605876 213.33333333333331 314.8344447866982 266.6666666666667 309.1067153307337 320 309.42865950928376 373.33333333333337 309.75134372680355 426.66666666666663 289.61133870475277 480 290.3132275381742 533.3333333333334 288.26688046345515 586.6666666666666 270.3665493645463 640 270.45236341980456 640 320 0 320"
      />
      
      <polygon
        fill="#e34c26"
        fillRule="evenodd"
        points="0 317.7003486170352 53.33333333333333 314.6676632517049 106.66666666666666 314.5095372812276 160 314.67713059605876 213.33333333333331 314.8344447866982 266.6666666666667 311.3296088016152 320 311.58585656332605 373.33333333333337 311.84269362636684 426.66666666666663 310.1555236505961 480 310.2901538650348 533.3333333333334 308.70065286377366 586.6666666666666 309.0345988483592 640 309.05355713071015 640 320 0 320"
      />
      
      <polygon
        fill="#563d7c"
        fillRule="evenodd"
        points="0 317.7003486170352 53.33333333333333 314.6676632517049 106.66666666666666 314.5553905268417 160 314.7215841978504 213.33333333333331 314.87758458825874 266.6666666666667 311.3714317839216 320 311.6264434884458 373.33333333333337 311.8820416606031 426.66666666666663 310.1936706073185 480 310.3272475226428 533.3333333333334 308.736614259657 586.6666666666666 309.06949742175465 640 309.08839536976393 640 320 0 320"
      />
      
      <polygon
        fill="#555555"
        fillRule="evenodd"
        points="0 317.7003486170352 53.33333333333333 315.5323908597984 106.66666666666666 315.6687622203743 160 315.8009708307865 213.33333333333331 315.92507052481193 266.6666666666667 312.38694383306785 320 312.61194260596255 373.33333333333337 312.8374589256545 426.66666666666663 311.1199243665566 480 311.22792584431704 533.3333333333334 309.6097999147161 586.6666666666666 309.91687656229135 640 309.93430942584564 640 320 0 320"
      />
      
      <polygon
        fill="#C1F12E"
        fillRule="evenodd"
        points="0 317.7003486170352 53.33333333333333 315.5323908597984 106.66666666666666 315.6687622203743 160 315.8009708307865 213.33333333333331 315.92507052481193 266.6666666666667 312.38694383306785 320 312.61194260596255 373.33333333333337 312.8374589256545 426.66666666666663 311.1199243665566 480 311.3651177129952 533.3333333333334 309.7428040782515 586.6666666666666 310.0459498554171 640 310.0631595674819 640 320 0 320"
      />
      

      
        <g id="labels">
        
          
          <text x="0" y="330">
            May 2020
          </text>
          
        
          
        
          
          <text x="98.46153846153847" y="330">
            Jul 2020
          </text>
          
        
          
        
          
          <text x="196.92307692307693" y="330">
            Sep 2020
          </text>
          
        
          
        
          
          <text x="295.38461538461536" y="330">
            Nov 2020
          </text>
          
        
          
        
          
          <text x="393.84615384615387" y="330">
            Jan 2021
          </text>
          
        
          
        
          
          <text x="492.3076923076923" y="330">
            Mar 2021
          </text>
          
        
          
        
          
          <text x="590.7692307692307" y="330">
            May 2021
          </text>
          
        
        </g>
      

      
        <text text-anchor="middle" y="370" x="320" id="legend">
          
          <tspan xml:space="preserve" fill="#C1F12E">   ◉</tspan> Batchfile
          
          <tspan xml:space="preserve" fill="#555555">   ◉</tspan> C
          
          <tspan xml:space="preserve" fill="#563d7c">   ◉</tspan> CSS
          
          <tspan xml:space="preserve" fill="#e34c26">   ◉</tspan> HTML
          
          <tspan xml:space="preserve" fill="#22e4e8">   ◉</tspan> JSON
          
          <tspan xml:space="preserve" fill="#b07219">   ◉</tspan> Java
          
          <tspan xml:space="preserve" fill="#F18E33">   ◉</tspan> Kotlin
          
        </text>
      

    </svg>